<svg width="162" height="51" viewBox="0 0 162 51" fill="none" xmlns="http://www.w3.org/2000/svg">
<path d="M0 29.75H7.87091V26.0712H3.93545V3.67876H7.87091V0H0V29.75Z" fill="black"/>
<path d="M9.92472 18.3938C9.92472 19.5134 10.8692 23.672 16.8511 23.672C21.5422 23.672 23.7775 21.4008 23.7775 18.7137C23.7775 15.8027 22.0459 14.2672 18.7401 13.7554L16.064 13.3395C14.5843 13.1156 13.8602 12.6038 13.8602 11.836C13.8602 10.8444 14.8047 9.91667 16.6937 9.91667C18.5827 9.91667 19.6846 11.0043 19.6846 11.996H23.4627C23.4627 10.0766 21.3848 6.71774 16.6937 6.71774C12.286 6.71774 9.92472 9.11693 9.92472 11.836C9.92472 14.5551 11.8137 15.9306 15.1195 16.4745L17.6382 16.8903C19.4013 17.1782 19.8421 17.722 19.8421 18.7137C19.8421 19.7054 19.0865 20.4731 16.8511 20.4731C14.6787 20.4731 13.7028 19.1935 13.7028 18.3938H9.92472Z" fill="black"/>
<path d="M26.9222 16.7944C26.9222 20.953 29.5983 23.672 33.2189 23.672C34.6986 23.672 35.8321 23.1922 36.5562 22.7124C36.9655 22.4245 37.3433 22.1046 37.6266 21.7527H37.784L38.0989 23.3522H41.7195V7.03763H37.784V16.4745C37.784 18.5538 36.3673 19.9933 34.3208 19.9933C32.2744 19.9933 30.8576 18.5538 30.8576 16.4745V7.03763H26.9222V16.7944Z" fill="black"/>
<path d="M53.9858 19.9933C51.5931 19.9933 49.8929 18.2659 49.8929 15.1949C49.8929 12.1239 51.5931 10.3965 53.9858 10.3965C56.3786 10.3965 58.0787 12.1239 58.0787 15.1949C58.0787 18.2659 56.3786 19.9933 53.9858 19.9933ZM45.9575 23.3522H49.4207L49.7355 21.5927H49.8929C50.2078 22.0086 50.5856 22.3605 51.0263 22.6484C51.782 23.1602 52.9469 23.672 54.6155 23.672C58.7084 23.672 62.0141 20.3132 62.0141 15.1949C62.0141 10.0766 58.7084 6.71774 54.6155 6.71774C53.0098 6.71774 51.9079 7.26156 51.1523 7.77339C50.7115 8.06129 50.3337 8.41317 50.0504 8.79704H49.8929V0.959677H45.9575V23.3522Z" fill="black"/>
<path d="M64.3791 29.75H72.25V0H64.3791V3.67876H68.3145V26.0712H64.3791V29.75Z" fill="black"/>
<path d="M79.3333 44.5651C79.3333 48.456 81.9947 51 85.5953 51C87.0669 51 88.1941 50.5511 88.9142 50.1021C89.3212 49.8327 89.6969 49.5334 89.9787 49.2042H90.1353L90.4484 50.7007H94.049V35.4366H90.1353V44.2658C90.1353 46.2113 88.7263 47.5581 86.6912 47.5581C84.656 47.5581 83.2471 46.2113 83.2471 44.2658V35.4366H79.3333V44.5651Z" fill="black"/>
<path d="M98.1071 50.7007H102.021V41.8715C102.021 39.9859 103.023 39.0282 104.995 39.0282H107.813V35.4366H104.682C103.712 35.4366 103.023 35.7958 102.553 36.125C102.271 36.3345 102.052 36.544 101.864 36.7834H101.708L101.395 35.4366H98.1071V50.7007Z" fill="black"/>
<path d="M118.295 47.5581C115.915 47.5581 114.224 45.9419 114.224 43.0687C114.224 40.1954 115.915 38.5792 118.295 38.5792C120.674 38.5792 122.365 40.1954 122.365 43.0687C122.365 45.9419 120.674 47.5581 118.295 47.5581ZM110.311 50.7007H113.755L114.068 49.0546H114.224C114.537 49.4437 114.913 49.7729 115.352 50.0423C116.103 50.5211 117.261 51 118.921 51C122.991 51 126.279 47.8574 126.279 43.0687C126.279 38.2799 122.991 35.1373 118.921 35.1373C117.324 35.1373 116.228 35.6461 115.477 36.125C115.038 36.3944 114.663 36.7236 114.381 37.0827H114.224V29.75H110.311V50.7007Z" fill="black"/>
<path d="M139.589 50.7007H142.877V40.9736C142.877 37.7113 140.215 35.1373 136.145 35.1373C131.887 35.1373 129.758 37.5616 129.413 40.0757H133.327C133.484 39.2077 134.392 38.1303 136.145 38.1303C137.898 38.1303 138.963 39.2975 138.963 40.9736V41.2729H135.362C130.979 41.2729 128.787 43.368 128.787 46.3609C128.787 48.875 130.948 51 134.58 51C136.176 51 137.272 50.5511 138.024 50.1021C138.462 49.8327 138.838 49.5334 139.119 49.2042H139.276L139.589 50.7007ZM138.963 44.5651C138.963 46.6901 137.585 48.007 135.206 48.007C133.609 48.007 132.701 47.2588 132.701 46.0616C132.701 44.8644 133.64 44.1162 135.675 44.1162H138.963V44.5651Z" fill="black"/>
<path d="M146.784 50.7007H150.698V41.8715C150.698 39.9261 152.107 38.5792 154.142 38.5792C156.177 38.5792 157.586 39.9261 157.586 41.8715V50.7007H161.5V41.5722C161.5 37.6813 158.839 35.1373 155.238 35.1373C153.735 35.1373 152.639 35.5863 151.919 36.0352C151.512 36.3046 151.136 36.6039 150.855 36.9331H150.698L150.385 35.4366H146.784V50.7007Z" fill="black"/>
</svg>
