<svg width="10" height="21" viewBox="0 0 10 21" fill="none" xmlns="http://www.w3.org/2000/svg">
<path d="M8.63636 5.48707V15.5847C8.63636 17.5795 7.24545 19.3547 5.35455 19.5455C3.18182 19.7651 1.36364 17.9803 1.36364 15.747V3.95047C1.36364 2.70019 2.21818 1.56444 3.4 1.44037C4.76364 1.29721 5.90909 2.41387 5.90909 3.81685V13.8382C5.90909 14.3631 5.5 14.7926 5 14.7926C4.5 14.7926 4.09091 14.3631 4.09091 13.8382V5.48707C4.09091 5.09576 3.78182 4.77126 3.40909 4.77126C3.03636 4.77126 2.72727 5.09576 2.72727 5.48707V13.7045C2.72727 14.9548 3.58182 16.0906 4.76364 16.2147C6.12727 16.3578 7.27273 15.2412 7.27273 13.8382V3.9791C7.27273 1.98438 5.88182 0.209178 3.99091 0.0182955C1.82727 -0.201219 0 1.58353 0 3.81685V15.5275C0 18.2666 1.90909 20.7195 4.50909 20.9772C7.5 21.2635 10 18.8202 10 15.747V5.48707C10 5.09576 9.69091 4.77126 9.31818 4.77126C8.94545 4.77126 8.63636 5.09576 8.63636 5.48707Z" fill="black"/>
</svg>
