<svg width="11" height="24" viewBox="0 0 11 24" fill="none" xmlns="http://www.w3.org/2000/svg">
<path d="M2.4534 4.64801C2.4534 5.25282 2.4534 7.95233 2.4534 7.95233H0.133423V11.9929H2.4534V23.9999H7.21914V11.9932H10.4172C10.4172 11.9932 10.7167 10.0558 10.8619 7.93743C10.4456 7.93743 7.23716 7.93743 7.23716 7.93743C7.23716 7.93743 7.23716 5.58678 7.23716 5.17476C7.23716 4.76184 7.75677 4.20642 8.27034 4.20642C8.78294 4.20642 9.86483 4.20642 10.8669 4.20642C10.8669 3.6563 10.8669 1.7555 10.8669 1.44333e-08C9.52918 1.44333e-08 8.0073 1.44333e-08 7.33646 1.44333e-08C2.3356 -0.000278981 2.4534 4.04427 2.4534 4.64801Z" fill="black"/>
</svg>
